<?xml version="1.0" standalone="no"?>
<!DOCTYPE svg PUBLIC "-//W3C//DTD SVG 20010904//EN"
 "http://www.w3.org/TR/2001/REC-SVG-20010904/DTD/svg10.dtd">
<svg version="1.0" xmlns="http://www.w3.org/2000/svg"
 width="2000.000000pt" height="2000.000000pt" viewBox="0 0 2000.000000 2000.000000"
 preserveAspectRatio="xMidYMid meet">
<metadata>
Created by potrace 1.14, written by Peter Selinger 2001-2017
</metadata>
<g transform="translate(0.000000,2000.000000) scale(0.100000,-0.100000)"
fill="#000000" stroke="none">
<path d="M9139 19996 c-2 -2 -44 -7 -93 -11 -50 -4 -97 -8 -105 -10 -9 -1 -46
-6 -83 -9 -37 -4 -77 -9 -90 -11 -13 -2 -45 -6 -73 -10 -27 -3 -63 -8 -80 -11
-16 -2 -46 -6 -65 -8 -19 -2 -62 -9 -95 -15 -33 -5 -78 -13 -100 -16 -43 -6
-63 -9 -105 -19 -14 -3 -42 -8 -64 -11 -52 -7 -212 -40 -371 -77 -71 -16 -141
-31 -154 -34 -110 -22 -358 -90 -616 -169 -1016 -309 -2048 -823 -2920 -1455
-146 -105 -446 -337 -515 -397 -43 -37 -66 -57 -116 -98 -27 -22 -55 -47 -64
-55 -9 -8 -49 -44 -90 -80 -144 -126 -197 -177 -425 -405 -239 -239 -290 -292
-415 -435 -41 -47 -77 -87 -80 -90 -3 -3 -41 -48 -86 -100 -68 -81 -107 -129
-214 -263 -8 -11 -20 -24 -25 -31 -12 -13 -118 -155 -225 -301 -134 -182 -404
-593 -495 -753 -5 -9 -31 -53 -56 -97 -166 -285 -302 -549 -452 -875 -82 -179
-207 -484 -281 -690 -15 -41 -32 -84 -36 -95 -12 -26 -149 -444 -155 -470 -2
-11 -14 -51 -25 -90 -18 -58 -72 -252 -85 -305 -51 -207 -64 -261 -80 -340 -8
-36 -17 -76 -20 -90 -3 -14 -15 -70 -25 -125 -11 -55 -22 -111 -24 -125 -13
-61 -55 -320 -61 -369 -4 -30 -8 -61 -10 -70 -2 -9 -6 -44 -10 -76 -4 -33 -9
-68 -11 -78 -2 -10 -6 -46 -9 -80 -3 -34 -8 -73 -10 -87 -16 -91 -20 -283 -20
-1060 0 -768 3 -930 20 -1065 10 -79 15 -125 21 -180 3 -33 7 -62 9 -65 2 -3
6 -34 10 -70 4 -36 9 -72 10 -82 2 -9 7 -38 11 -65 3 -26 8 -55 9 -63 2 -8 6
-35 10 -60 4 -25 9 -54 11 -65 5 -23 12 -62 20 -107 26 -154 107 -521 149
-673 14 -49 33 -124 44 -165 69 -264 241 -784 326 -985 7 -16 29 -73 50 -125
194 -486 475 -1038 788 -1545 168 -272 522 -772 670 -945 7 -8 40 -49 72 -90
33 -41 65 -80 70 -86 6 -6 30 -35 55 -64 25 -29 50 -58 55 -64 6 -6 44 -50 85
-96 130 -148 180 -200 410 -430 230 -230 281 -279 430 -410 47 -41 90 -79 96
-85 6 -5 35 -30 64 -55 29 -25 58 -50 64 -55 51 -47 404 -323 466 -365 12 -8
28 -19 34 -25 17 -15 143 -105 211 -150 33 -22 62 -43 65 -46 7 -9 276 -183
410 -266 395 -243 901 -504 1338 -689 17 -8 47 -20 65 -28 117 -51 480 -187
682 -254 197 -67 628 -192 745 -217 8 -2 56 -13 105 -24 85 -21 324 -73 390
-85 17 -4 66 -13 110 -21 44 -8 89 -16 100 -19 11 -2 45 -7 75 -12 30 -4 57
-8 60 -9 3 -1 30 -5 60 -9 30 -4 67 -9 83 -12 15 -2 39 -6 55 -8 15 -3 45 -7
67 -11 51 -8 85 -12 165 -19 36 -4 76 -9 90 -11 91 -16 281 -20 1050 -20 759
0 971 4 1071 19 13 3 53 7 89 11 36 4 74 9 85 11 11 2 43 6 70 9 28 3 59 7 70
9 11 2 46 7 78 10 32 4 95 14 140 22 45 8 100 17 122 20 22 4 148 28 280 55
132 27 252 52 266 55 55 10 482 124 609 162 143 43 461 147 495 162 11 4 54
21 95 36 149 54 349 134 526 209 169 72 668 314 799 388 33 18 87 48 120 67
33 18 94 53 135 77 41 24 82 48 90 53 322 188 768 496 1080 743 135 107 338
275 360 297 3 3 43 39 90 80 137 120 182 163 425 405 227 227 287 289 415 435
36 40 70 78 75 84 6 6 33 38 60 71 28 33 55 65 61 71 36 39 211 261 304 384
138 185 137 183 242 335 124 177 108 154 179 265 117 181 283 460 388 650 68
124 305 606 366 745 331 755 572 1550 705 2325 6 30 12 65 15 78 2 13 9 56 14
95 6 40 12 81 15 92 2 11 7 49 12 85 4 36 8 67 9 70 1 7 14 114 21 170 2 25 6
61 9 80 17 138 20 291 20 1055 0 754 -3 925 -19 1060 -2 17 -7 57 -11 90 -8
77 -12 104 -25 195 -5 41 -12 89 -14 105 -5 38 -35 232 -41 265 -5 25 -10 53
-20 100 -3 14 -7 39 -10 55 -8 48 -14 78 -19 105 -3 14 -13 61 -22 105 -48
242 -153 640 -242 925 -59 188 -197 578 -231 655 -5 11 -15 36 -22 55 -19 54
-156 374 -202 475 -141 307 -455 892 -578 1078 -22 32 -39 61 -39 64 0 2 -13
23 -28 46 -39 57 -223 333 -242 362 -49 76 -318 435 -393 525 -6 8 -30 37 -51
65 -165 210 -419 489 -700 770 -229 228 -282 279 -425 405 -41 36 -79 70 -85
75 -10 10 -127 109 -184 156 -391 327 -993 743 -1407 974 -719 400 -1275 642
-2008 874 -221 70 -730 204 -859 226 -18 3 -49 10 -68 15 -19 5 -48 11 -65 14
-16 2 -77 13 -135 25 -58 11 -118 22 -135 24 -16 3 -57 10 -90 15 -33 6 -78
14 -100 17 -22 3 -51 7 -65 10 -28 4 -160 22 -230 30 -25 3 -56 8 -70 10 -14
2 -59 7 -100 10 -41 4 -88 9 -105 13 -33 6 -1809 15 -1816 8z m1356 -1550 c28
-2 88 -7 135 -10 47 -4 106 -8 133 -11 26 -3 68 -7 95 -10 26 -2 72 -7 102
-11 30 -3 66 -8 80 -9 66 -7 218 -29 310 -45 30 -5 73 -12 95 -16 22 -3 119
-21 215 -41 96 -19 184 -37 195 -39 37 -7 420 -104 445 -113 14 -5 52 -17 85
-26 313 -88 812 -274 1150 -430 101 -46 450 -221 490 -244 17 -10 55 -32 85
-48 76 -42 288 -166 358 -210 126 -79 380 -249 438 -292 34 -25 72 -53 84 -61
19 -13 264 -199 310 -237 335 -268 739 -653 1020 -972 36 -40 70 -79 75 -85 6
-6 44 -51 85 -101 41 -49 77 -92 80 -95 11 -11 80 -99 146 -185 37 -49 72 -94
76 -100 140 -174 457 -664 609 -942 16 -29 43 -79 61 -110 39 -73 163 -320
218 -438 145 -309 303 -719 400 -1035 23 -74 50 -162 60 -195 26 -84 93 -347
125 -490 34 -151 35 -155 55 -263 5 -31 12 -67 14 -78 2 -12 7 -39 10 -60 4
-22 11 -64 16 -94 5 -30 17 -107 26 -170 20 -144 20 -151 29 -230 3 -36 8 -76
10 -90 2 -14 7 -63 10 -110 4 -47 8 -101 10 -120 20 -188 27 -835 12 -1080
-13 -216 -21 -317 -33 -415 -3 -22 -7 -60 -9 -85 -2 -25 -6 -59 -9 -75 -2 -17
-7 -52 -10 -80 -9 -76 -15 -118 -41 -279 -9 -55 -18 -102 -19 -105 -2 -3 -7
-26 -10 -51 -3 -25 -8 -54 -10 -65 -3 -11 -12 -53 -20 -92 -9 -40 -18 -85 -21
-100 -3 -16 -21 -93 -40 -173 -19 -80 -38 -155 -40 -168 -3 -13 -30 -107 -60
-210 -469 -1619 -1397 -3044 -2690 -4133 -90 -76 -247 -201 -380 -301 -27 -21
-54 -41 -60 -46 -38 -30 -324 -225 -440 -299 -138 -88 -448 -273 -459 -273 -3
0 -29 -14 -58 -31 -135 -80 -505 -259 -738 -357 -276 -116 -764 -292 -910
-327 -15 -3 -40 -10 -220 -60 -52 -15 -102 -28 -110 -30 -8 -2 -46 -11 -85
-20 -119 -28 -289 -66 -315 -70 -14 -2 -36 -6 -50 -9 -13 -3 -42 -8 -64 -12
-22 -3 -43 -7 -46 -9 -3 -2 -41 -9 -85 -15 -44 -7 -89 -14 -100 -16 -27 -5
-81 -12 -135 -19 -25 -3 -56 -7 -70 -10 -41 -7 -90 -13 -165 -20 -38 -4 -77
-9 -86 -10 -9 -2 -56 -6 -105 -10 -49 -4 -105 -9 -124 -11 -114 -11 -364 -19
-635 -18 -397 0 -625 12 -940 49 -22 2 -65 7 -95 10 -30 3 -62 7 -70 10 -8 2
-40 7 -70 10 -51 6 -314 49 -370 60 -14 3 -59 11 -100 19 -63 12 -120 25 -280
61 -141 31 -461 119 -625 172 -214 68 -577 201 -680 248 -16 7 -52 22 -80 33
-27 11 -94 41 -148 66 -55 25 -101 46 -103 46 -7 0 -373 183 -439 220 -33 18
-85 46 -115 63 -30 17 -72 41 -92 54 -21 12 -40 23 -42 23 -10 0 -286 172
-446 279 -150 100 -524 372 -600 438 -14 11 -70 58 -125 104 -327 271 -679
617 -978 963 -10 12 -31 35 -45 51 -23 26 -116 140 -162 199 -8 10 -27 33 -41
50 -14 17 -47 60 -75 96 -27 36 -54 72 -61 80 -51 63 -324 467 -415 612 -198
320 -443 795 -586 1138 -138 330 -250 645 -340 960 -36 124 -89 325 -95 360
-3 14 -10 43 -16 65 -11 43 -57 258 -66 315 -3 19 -10 53 -15 75 -9 39 -11 52
-25 145 -4 25 -9 54 -11 65 -2 11 -11 72 -19 135 -9 63 -18 131 -21 150 -3 19
-7 60 -10 91 -2 30 -6 64 -8 75 -2 11 -7 60 -11 110 -4 49 -9 105 -11 124 -25
252 -25 938 1 1265 9 122 16 202 20 230 2 17 7 57 10 90 7 67 13 116 19 154 3
14 8 51 11 81 4 30 9 64 11 75 3 11 6 34 8 50 3 17 10 62 16 100 7 39 14 79
15 90 8 48 76 371 94 442 11 43 22 89 25 103 48 245 298 990 422 1258 13 29
24 55 24 58 0 3 20 48 45 101 25 52 45 98 45 100 0 7 210 425 219 438 5 6 30
51 56 100 114 214 459 756 568 890 4 6 56 73 114 150 96 125 269 339 329 405
13 14 32 36 43 49 149 174 511 537 731 731 47 41 90 80 96 85 6 6 30 26 54 45
24 19 61 51 83 70 22 19 52 44 67 55 15 11 77 58 136 105 247 194 680 487 904
612 25 14 73 42 107 62 34 20 64 36 67 36 4 0 25 12 47 26 43 27 472 244 482
244 4 0 42 17 85 38 43 22 92 44 108 50 16 5 79 31 139 57 313 132 758 282
1103 370 78 20 150 38 160 40 9 1 44 10 77 18 86 22 450 94 515 102 30 4 73
10 95 15 22 5 69 11 105 15 36 4 68 9 71 10 3 2 55 9 115 15 60 7 123 14 139
16 17 2 70 6 118 9 49 4 98 8 110 11 12 2 91 7 177 10 85 4 157 8 158 9 5 5
726 -4 787 -9z"/>
<path d="M10099 14146 c-2 -2 -57 -7 -121 -10 -65 -4 -128 -9 -140 -11 -13 -2
-50 -6 -83 -10 -50 -5 -239 -35 -310 -49 -176 -35 -457 -120 -582 -177 -24
-10 -45 -19 -48 -19 -11 0 -183 -85 -281 -140 -59 -33 -109 -60 -110 -60 -5 0
-280 -185 -303 -204 -247 -207 -384 -354 -517 -557 -145 -221 -231 -441 -279
-718 -20 -116 -37 -360 -26 -362 26 -7 1874 -3 1878 4 3 4 7 34 9 65 16 256
104 432 299 598 117 100 268 163 455 189 154 22 452 22 600 0 232 -34 462
-122 644 -244 159 -108 290 -306 346 -526 18 -70 24 -101 35 -190 4 -32 9
-481 6 -572 l-1 -21 -677 -2 c-373 0 -711 -3 -752 -5 -136 -6 -296 -16 -326
-20 -16 -2 -66 -7 -110 -10 -44 -3 -91 -8 -105 -10 -14 -2 -46 -6 -72 -9 -94
-11 -337 -51 -408 -67 -25 -6 -56 -13 -70 -15 -132 -25 -418 -114 -576 -179
-142 -59 -353 -170 -434 -228 -386 -278 -528 -419 -686 -677 -139 -228 -252
-543 -280 -781 -3 -30 -8 -57 -10 -60 -7 -13 -18 -207 -18 -324 1 -179 16
-334 45 -465 6 -25 12 -53 15 -64 35 -174 167 -464 318 -701 52 -82 60 -92
135 -179 171 -198 513 -410 944 -585 245 -99 423 -149 667 -185 190 -29 689
-29 860 0 118 20 295 73 636 194 72 25 236 98 314 138 92 48 176 107 240 168
30 29 107 92 170 140 63 49 128 101 145 116 16 15 31 25 33 23 2 -2 6 -18 8
-37 3 -18 16 -84 30 -147 14 -63 27 -131 30 -150 5 -47 91 -301 109 -325 15
-19 37 -20 987 -20 l973 0 3 64 c2 35 -2 73 -7 85 -29 55 -78 216 -141 460
-54 212 -67 272 -76 360 -3 33 -8 80 -11 105 -3 25 -8 522 -9 1105 -2 583 -5
1474 -7 1980 -2 506 -6 931 -10 944 -4 14 -9 47 -12 75 -14 122 -69 349 -126
520 -89 266 -167 437 -268 590 -69 104 -73 110 -111 157 -252 313 -599 562
-1015 727 -394 157 -777 259 -1080 288 -33 3 -73 8 -90 10 -36 7 -639 16 -646
10z m1347 -4775 l-1 -631 -126 -127 c-69 -71 -139 -147 -155 -170 -51 -71
-123 -121 -304 -211 -192 -96 -239 -117 -350 -158 -153 -56 -176 -63 -225 -68
-27 -4 -66 -8 -85 -11 -46 -7 -393 -7 -450 0 -25 3 -60 8 -77 10 -18 3 -50 7
-70 11 -59 8 -208 52 -267 78 -210 93 -380 296 -442 531 -15 57 -19 106 -19
265 0 107 4 221 8 253 9 63 50 185 88 257 25 47 123 151 255 268 107 96 141
117 309 193 48 21 216 78 275 92 87 22 109 25 204 33 45 3 82 7 84 9 1 1 305
3 675 4 l673 2 0 -630z"/>
</g>
</svg>
